<svg xmlns="http://www.w3.org/2000/svg" xmlns:xlink="http://www.w3.org/1999/xlink" version="1.1" x="0px" y="0px" viewBox="0 0 1024 1280" style="enable-background:new 0 0 1024 1024;" xml:space="preserve"><g><g><g><path d="M519.3,721c0,48,0,96.1,0,144.1c0,7.6,0.6,15.5-0.3,23c0.7-5.3,1.4-10.6,2.1-16c-0.4,2.3-1,4.4-1.8,6.5     c2-4.8,4-9.6,6-14.3c-1.1,2.5-2.4,4.7-4,6.9c3.1-4,6.3-8.1,9.4-12.1c-1.7,2.1-3.5,3.9-5.6,5.5c4-3.1,8.1-6.3,12.1-9.4     c-1.8,1.3-3.7,2.4-5.7,3.3c4.8-2,9.6-4,14.3-6c-2.1,0.8-4.2,1.4-6.4,1.8c5.3-0.7,10.6-1.4,16-2.1c-4.7,0.6-9.5,0.3-14.2,0.3     c-9.7,0-19.3,0-29,0c-32.2,0-64.4,0-96.6,0c-39.3,0-78.5,0-117.8,0c-33.7,0-67.4,0-101.1,0c-16,0-32,0.2-48,0     c-1.5,0-3.1-0.1-4.6-0.3c5.3,0.7,10.6,1.4,16,2.1c-2.2-0.4-4.3-1-6.4-1.8c4.8,2,9.6,4,14.3,6c-2-0.9-3.9-2-5.7-3.3     c4,3.1,8.1,6.3,12.1,9.4c-2.1-1.6-4-3.4-5.6-5.5c3.1,4,6.3,8.1,9.4,12.1c-1.6-2.2-2.9-4.4-4-6.9c2,4.8,4,9.6,6,14.3     c-0.8-2.1-1.4-4.3-1.8-6.5c0.7,5.3,1.4,10.6,2.1,16c-0.9-7.6-0.3-15.5-0.3-23.2c0-17.9,0-35.9,0-53.8c0-26.7,0-53.4,0-80.1     c0-32.7,0-65.4,0-98c0-35.8,0-71.7,0-107.5c0-36.2,0-72.4,0-108.6c0-33.7,0-67.4,0-101.2c0-28.4,0-56.9,0-85.3     c0-20.4,0-40.7,0-61.1c0-9.5-0.1-18.9,0-28.4c0-1.7,0.1-3.4,0.3-5.1c-0.7,5.3-1.4,10.6-2.1,16c0.4-2.2,1-4.3,1.8-6.4     c-2,4.8-4,9.6-6,14.3c1.1-2.4,2.4-4.6,4-6.7c-3.1,4-6.3,8.1-9.4,12.1c1.4-1.7,2.9-3.1,4.6-4.5c-4,3.1-8.1,6.3-12.1,9.4     c2.1-1.6,4.3-2.8,6.8-3.9c-4.8,2-9.6,4-14.3,6c2.1-0.8,4.2-1.3,6.4-1.7c-5.3,0.7-10.6,1.4-16,2.1c4.7-0.6,9.5-0.3,14.2-0.3     c9.7,0,19.3,0,29,0c32.2,0,64.4,0,96.6,0c39.3,0,78.5,0,117.8,0c33.7,0,67.4,0,101.1,0c16,0,32-0.2,48,0c1.5,0,3.1,0.1,4.6,0.3     c-5.3-0.7-10.6-1.4-16-2.1c2.2,0.4,4.3,0.9,6.4,1.7c-4.8-2-9.6-4-14.3-6c2.4,1,4.6,2.3,6.8,3.9c-4-3.1-8.1-6.3-12.1-9.4     c1.7,1.4,3.2,2.8,4.6,4.5c-3.1-4-6.3-8.1-9.4-12.1c1.6,2.1,2.9,4.2,4,6.7c-2-4.8-4-9.6-6-14.3c0.8,2.1,1.4,4.2,1.8,6.4     c-0.7-5.3-1.4-10.6-2.1-16c0.8,6.3,0.3,12.9,0.3,19.2c0,12.8,0,25.7,0,38.5c0,29.8,0,59.7,0,89.5c0,7,0,14,0,20.9     c0,15.4,6.7,31.5,17.6,42.4c10.4,10.4,27.5,18.2,42.4,17.6c15.5-0.7,31.6-5.8,42.4-17.6c10.8-11.7,17.6-26.2,17.6-42.4     c0-34.6,0-69.2,0-103.8c0-18.1,0-36.2,0-54.3c0-10.5-0.5-21.1-3.7-31.1c-12.1-37.1-45.2-61.5-84.3-62.3c-20.8-0.4-41.6,0-62.3,0     c-44.2,0-88.4,0-132.6,0c-45.1,0-90.2,0-135.2,0c-23.9,0-47.8-0.1-71.6,0c-0.4,0-0.8,0-1.2,0c-4.1,0.1-8.1,0.8-12.1,1.4     c-4.5,0.6-8.9,1-13.2,2.3c-14.2,4.5-23.3,10.4-34.5,19.7c-1.7,1.4-3.2,2.8-4.6,4.5c-4.1,4.7-8.4,9.9-11.6,15.3     c-6.1,10.2-9.1,20.7-10.6,32.2c-0.6,4.2-1.3,8.3-1.4,12.5c-0.1,4.2,0,8.3,0,12.5c0,23.4,0,46.8,0,70.2c0,38.2,0,76.5,0,114.7     c0,46.3,0,92.5,0,138.8c0,48,0,96,0,144c0,42.9,0,85.8,0,128.7c0,31.4,0,62.8,0,94.2c0,13.4-0.2,26.8,0,40.2     c0.4,24.1,10.1,50.2,29.3,65.8c11.7,9.6,20,15,34.7,19.6c7.7,2.4,16,3.2,24,3.4c0.4,0,0.9,0,1.3,0c8.1,0,16.2,0,24.3,0     c37.5,0,74.9,0,112.4,0c47.5,0,95,0,142.5,0c34.9,0,69.9,0,104.8,0c5.9,0,11.8,0.1,17.7,0c15.9-0.3,32-4.3,45.5-12.9     c18.9-12,33.4-30.5,39.3-52.2c2.7-10,3.2-20,3.2-30.1c0-41.3,0-82.6,0-124c0-10.8,0-21.5,0-32.3c0-15.4-6.7-31.5-17.6-42.4     c-10.4-10.4-27.5-18.2-42.4-17.6c-15.5,0.7-31.6,5.8-42.4,17.6C526,690.3,519.3,704.7,519.3,721L519.3,721z"/></g></g><g><g><path d="M319.8,572.5c19.4,0,38.7,0,58.1,0c46.5,0,93,0,139.5,0c56.2,0,112.5,0,168.7,0c48.6,0,97.2,0,145.9,0     c23.6,0,47.3,0.2,70.9,0c0.3,0,0.7,0,1,0c15.4,0,31.5-6.7,42.4-17.6c10.4-10.4,18.2-27.5,17.6-42.4c-0.7-15.5-5.8-31.6-17.6-42.4     c-11.7-10.8-26.2-17.6-42.4-17.6c-19.4,0-38.7,0-58.1,0c-46.5,0-93,0-139.5,0c-56.2,0-112.5,0-168.7,0c-48.6,0-97.2,0-145.9,0     c-23.6,0-47.3-0.2-70.9,0c-0.3,0-0.7,0-1,0c-15.4,0-31.5,6.7-42.4,17.6c-10.4,10.4-18.2,27.5-17.6,42.4     c0.7,15.5,5.8,31.6,17.6,42.4C289.1,565.7,303.5,572.5,319.8,572.5L319.8,572.5z"/></g></g><g><g><path d="M718.3,410.9c16.1,16.1,32.2,32.2,48.3,48.3c25.7,25.7,51.3,51.3,77,77c5.9,5.9,11.9,11.9,17.8,17.8     c0-28.3,0-56.6,0-84.9c-16.1,16.1-32.2,32.2-48.3,48.3c-25.7,25.7-51.3,51.3-77,77c-5.9,5.9-11.9,11.9-17.8,17.8     c-10.9,10.9-17.6,27-17.6,42.4c0,14.7,6.5,32.3,17.6,42.4c11.4,10.5,26.4,18.3,42.4,17.6c15.9-0.7,30.9-6.1,42.4-17.6     c16.1-16.1,32.2-32.2,48.3-48.3c25.7-25.7,51.3-51.3,77-77c5.9-5.9,11.9-11.9,17.8-17.8c22.9-22.9,23-61.9,0-84.9     c-16.1-16.1-32.2-32.2-48.3-48.3c-25.7-25.7-51.3-51.3-77-77c-5.9-5.9-11.9-11.9-17.8-17.8c-10.9-10.9-27-17.6-42.4-17.6     c-14.7,0-32.3,6.5-42.4,17.6c-10.5,11.4-18.3,26.4-17.6,42.4C701.4,384.3,706.8,399.4,718.3,410.9L718.3,410.9z"/></g></g></g><text x="0" y="1039" fill="#000000" font-size="5px" font-weight="bold" font-family="'Helvetica Neue', Helvetica, Arial-Unicode, Arial, Sans-serif">Created by shashank singh</text><text x="0" y="1044" fill="#000000" font-size="5px" font-weight="bold" font-family="'Helvetica Neue', Helvetica, Arial-Unicode, Arial, Sans-serif">from the Noun Project</text></svg>